<svg xmlns="http://www.w3.org/2000/svg" width="16" height="16" viewBox="0 0 16 16">
    <path fill="#aaaaaa" d="M7.07 1a.5.5 0 0 0-.49.41l-.22 1.28a5 5 0 0 0-.93.54l-1.22-.49a.5.5 0 0 0-.61.23L2.1 4.53a.5.5 0 0 0 .11.64l1.01.8a5 5 0 0 0-.03.53c0 .18.01.36.03.53l-1.01.8a.5.5 0 0 0-.11.64l1.5 2.56a.5.5 0 0 0 .61.23l1.22-.49c.29.2.6.38.93.54l.22 1.28a.5.5 0 0 0 .49.41h2.86a.5.5 0 0 0 .49-.41l.22-1.28c.33-.16.64-.33.93-.54l1.22.49a.5.5 0 0 0 .61-.23l1.5-2.56a.5.5 0 0 0-.11-.64l-1.01-.8c.02-.17.03-.35.03-.53s-.01-.36-.03-.53l1.01-.8a.5.5 0 0 0 .11-.64L13.4 2.97a.5.5 0 0 0-.61-.23l-1.22.49a5 5 0 0 0-.93-.54L10.42 1.41A.5.5 0 0 0 9.93 1H7.07zM8 5.5a2.5 2.5 0 1 1 0 5 2.5 2.5 0 0 1 0-5z"/>

    <!-- visually adjusted -->
    <circle cx="7.8" cy="7.9" r="1.2" fill="transparent"/>
</svg>
